<svg xmlns="http://www.w3.org/2000/svg" viewBox="0 0 800 450" font-family="system-ui, sans-serif">
  <rect width="800" height="450" fill="#f8faf9" rx="8"/>
  <text x="400" y="36" text-anchor="middle" font-size="18" font-weight="700" fill="#0f1a1f">Solar Savings Over 25 Years – Cumulative</text>
  <g transform="translate(60,60)">
    <line x1="0" y1="310" x2="680" y2="310" stroke="#c0d0ce" stroke-width="1"/>
    <line x1="0" y1="0" x2="0" y2="310" stroke="#c0d0ce" stroke-width="1"/>
    <text x="340" y="340" text-anchor="middle" font-size="12" fill="#4d5c66">Years</text>
    <text x="-30" y="155" text-anchor="middle" font-size="12" fill="#4d5c66" transform="rotate(-90,-30,155)">Cumulative Savings (Rs)</text>
    <polyline points="0,0 27,280 54,265 81,250 108,237 135,225 162,214 189,204 216,194 243,185 270,176 297,168 324,160 351,153 378,146 405,139 432,133 459,127 486,121 513,115 540,110 567,105 594,100 621,95 648,90 675,85" fill="none" stroke="#0f7a7a" stroke-width="3"/>
    <polygon points="0,310 27,280 54,265 81,250 108,237 135,225 162,214 189,204 216,194 243,185 270,176 297,168 324,160 351,153 378,146 405,139 432,133 459,127 486,121 513,115 540,110 567,105 594,100 621,95 648,90 675,85 675,310" fill="#0f7a7a" opacity="0.15"/>
    <g fill="#0f1a1f" font-size="10" text-anchor="middle">
      <text x="0" y="326">0</text>
      <text x="135" y="326">5</text>
      <text x="270" y="326">10</text>
      <text x="405" y="326">15</text>
      <text x="540" y="326">20</text>
      <text x="675" y="326">25</text>
    </g>
    <text x="675" y="80" text-anchor="end" font-size="12" fill="#0f7a7a" font-weight="600">~Rs 2.8M saved</text>
  </g>
</svg>
