<svg xmlns="http://www.w3.org/2000/svg" viewBox="0 0 800 500" font-family="system-ui, sans-serif">
  <rect width="800" height="500" fill="#f8faf9" rx="8"/>
  <text x="400" y="38" text-anchor="middle" font-size="18" font-weight="700" fill="#0f1a1f">NEPRA 2026 Tariff Slabs – Non-Protected Consumers</text>
  <g transform="translate(60,60)">
    <line x1="0" y1="380" x2="700" y2="380" stroke="#c0d0ce" stroke-width="1"/>
    <line x1="0" y1="0" x2="0" y2="380" stroke="#c0d0ce" stroke-width="1"/>
    <text x="350" y="410" text-anchor="middle" font-size="12" fill="#4d5c66">Consumption Slab (Units)</text>
    <text x="-30" y="190" text-anchor="middle" font-size="12" fill="#4d5c66" transform="rotate(-90,-30,190)">Rate (Rs/unit)</text>
    <line x1="0" y1="380" x2="700" y2="380" stroke="#0f7a7a" stroke-width="2"/>
    <line x1="0" y1="0" x2="0" y2="380" stroke="#0f7a7a" stroke-width="2"/>
    <g fill="#0f7a7a" opacity="0.85">
      <rect x="5" y="272" width="72" height="108" rx="3"><title>1-100: Rs 22.44</title></rect>
      <rect x="87" y="235" width="72" height="145" rx="3"><title>101-200: Rs 28.91</title></rect>
      <rect x="169" y="210" width="72" height="170" rx="3"><title>201-300: Rs 33.10</title></rect>
      <rect x="251" y="180" width="72" height="200" rx="3"><title>301-400: Rs 37.99</title></rect>
      <rect x="333" y="168" width="72" height="212" rx="3"><title>401-500: Rs 40.22</title></rect>
      <rect x="415" y="160" width="72" height="220" rx="3"><title>501-600: Rs 41.62</title></rect>
      <rect x="497" y="154" width="72" height="226" rx="3"><title>601-700: Rs 42.76</title></rect>
      <rect x="579" y="128" width="72" height="252" rx="3"><title>701+: Rs 47.69</title></rect>
    </g>
    <g fill="#0f1a1f" font-size="10" text-anchor="middle">
      <text x="41" y="398">1-100</text>
      <text x="123" y="398">101-200</text>
      <text x="205" y="398">201-300</text>
      <text x="287" y="398">301-400</text>
      <text x="369" y="398">401-500</text>
      <text x="451" y="398">501-600</text>
      <text x="533" y="398">601-700</text>
      <text x="615" y="398">700+</text>
    </g>
    <g fill="#f4b740" font-size="11" text-anchor="middle" font-weight="600">
      <text x="41" y="265">22.44</text>
      <text x="123" y="228">28.91</text>
      <text x="205" y="203">33.10</text>
      <text x="287" y="173">37.99</text>
      <text x="369" y="161">40.22</text>
      <text x="451" y="153">41.62</text>
      <text x="533" y="147">42.76</text>
      <text x="615" y="121">47.69</text>
    </g>
  </g>
</svg>
